# xmcd CD database file
#
# Track frame offsets:
#	150
#	27427
#	44872
#	55014
#	77483
#	92820
#	105125
#	125261
#	141893
#	152495
#	176514
#	191040
#	210475
#	234233
#	256653
#	271667
#
# Disc length: 3812 seconds
#
# Revision: 0
# Processed by: cddbd v1.5.1PL0 Copyright (c) Steve Scherf et al.
# Submitted via: CDex 1.51
#
DISCID=c60ee210
DTITLE=John Stowell - Summer Nights
DYEAR=2002
DGENRE=Jazz
TTITLE0=Summer Nights
TTITLE1=Celeste
TTITLE2=Blackbird
TTITLE3=De Tom Para Tom
TTITLE4=Do Not Disturb
TTITLE5=Wabash 3
TTITLE6=Star Eyes
TTITLE7=Ghost in the Corner
TTITLE8=Two's Blues
TTITLE9=Quiet Nights
TTITLE10=Stay Right Here
TTITLE11=If You Never Come To Me
TTITLE12=Everything I Love
TTITLE13=Zingaro
TTITLE14=3 and 1
TTITLE15=Whisper Not
EXTD=YEAR: 2002
EXTT0=
EXTT1=
EXTT2=
EXTT3=
EXTT4=
EXTT5=
EXTT6=
EXTT7=
EXTT8=
EXTT9=
EXTT10=
EXTT11=
EXTT12=
EXTT13=
EXTT14=
EXTT15=
PLAYORDER=
